# This file uses centimeters as units for non-parametric coordinates.

mtllib LOW_Picknicktafel.mtl
g default
v 0.738204 0.440965 -1.374212
v 0.738204 0.440965 1.374213
v 0.738204 0.518511 -1.374212
v 0.738204 0.518512 1.374213
v -0.738205 0.518512 1.374213
v -0.738205 0.518511 -1.374213
v -0.738205 0.440965 1.374213
v -0.738205 0.440965 -1.374213
vt 0.485563 0.957023
vt 0.476394 0.957023
vt 0.476394 0.518895
vt 0.485563 0.518895
vt 0.269366 0.957022
vt 0.269366 0.518895
vt 0.476394 0.502367
vt 0.269366 0.502367
vt 0.025380 0.423484
vt 0.025380 0.976786
vt 0.249530 0.976786
vt 0.249530 0.423484
vt 0.269366 0.974711
vt 0.476394 0.974710
vt 0.261413 0.957022
vt 0.261413 0.518895
vn 1.000000 0.000000 0.000000
vn 1.000000 0.000000 0.000000
vn 1.000000 0.000000 0.000000
vn 1.000000 0.000000 0.000000
vn 0.000000 1.000000 -0.000000
vn -0.052431 0.998227 -0.028165
vn -0.052430 0.998227 0.028165
vn 0.000000 1.000000 -0.000000
vn 0.000000 0.000000 1.000000
vn 0.000000 0.000000 1.000000
vn -0.052431 -0.998227 0.028165
vn -0.052431 -0.998227 -0.028165
vn 0.000000 -1.000000 0.000000
vn 0.000000 -1.000000 0.000000
vn 0.000001 0.000000 -1.000000
vn 0.000001 0.000000 -1.000000
s off
g polySurface15 pCube17
usemtl initialShadingGroup
f 1/1/1 3/2/2 4/3/3 2/4/4
s 1
f 3/2/5 6/5/6 5/6/7 4/3/8
f 2/7/9 4/3/10 5/6/7 7/8/11
f 7/9/11 8/10/12 1/11/13 2/12/14
f 8/13/12 6/5/6 3/2/15 1/14/16
f 8/15/12 7/16/11 5/6/7 6/5/6
g default
v 1.198053 -0.518512 -1.186242
v 1.198053 -0.518512 -1.250317
v 0.694952 0.483624 -1.186242
v 0.694952 0.483624 -1.250317
v 0.503698 0.483624 -1.186242
v 0.503698 0.483624 -1.250317
v 1.006801 -0.518512 -1.186242
v 1.006801 -0.518512 -1.250317
vt 0.104830 0.047797
vt 0.120146 0.047797
vt 0.128595 0.359625
vt 0.108281 0.359625
vt 0.103953 0.359625
vt 0.065694 0.359625
vt 0.061411 0.359625
vt 0.043598 0.359625
vt 0.046893 0.047797
vt 0.064727 0.047797
vt 0.068428 0.047797
vt 0.101190 0.047797
vt 0.164776 0.047797
vt 0.180908 0.359625
vn 0.893701 0.448664 0.000000
vn 0.893701 0.448664 0.000000
vn 0.893701 0.448664 0.000000
vn 0.893701 0.448664 0.000000
vn 0.000000 1.000000 0.000000
vn 0.000000 1.000000 0.000000
vn 0.000000 1.000000 0.000000
vn 0.000000 1.000000 0.000000
vn -0.893700 -0.448665 0.000000
vn -0.893700 -0.448665 0.000000
vn -0.893700 -0.448665 0.000000
vn -0.893700 -0.448665 0.000000
vn 0.000000 -1.000000 0.000000
vn 0.000000 -1.000000 0.000000
vn 0.000000 -1.000000 0.000000
vn 0.000000 -1.000000 0.000000
vn 0.000000 0.000000 -1.000000
vn 0.000000 0.000000 -1.000000
vn 0.000000 0.000000 -1.000000
vn 0.000000 0.000000 -1.000000
vn 0.000000 0.000000 1.000000
vn 0.000000 0.000000 1.000000
vn 0.000000 0.000000 1.000000
vn 0.000000 0.000000 1.000000
s off
g pCube17 polySurface16
usemtl initialShadingGroup
f 9/17/17 10/18/18 12/19/19 11/20/20
f 11/20/21 12/21/22 14/22/23 13/23/24
f 13/23/25 14/24/26 16/25/27 15/26/28
f 15/26/29 16/27/30 10/28/31 9/17/32
f 10/18/33 16/29/34 14/30/35 12/19/36
f 15/26/37 9/17/38 11/20/39 13/23/40
g default
v 1.198053 -0.518512 1.186242
v 1.198053 -0.518512 1.250317
v 0.694952 0.483624 1.186242
v 0.694952 0.483624 1.250317
v 0.503698 0.483624 1.186242
v 0.503698 0.483624 1.250317
v 1.006801 -0.518512 1.186242
v 1.006801 -0.518512 1.250317
vt 0.307874 0.047797
vt 0.304427 0.359625
vt 0.284117 0.359625
vt 0.292547 0.047797
vt 0.351297 0.359625
vt 0.347006 0.359625
vt 0.308754 0.359625
vt 0.347986 0.047797
vt 0.365815 0.047797
vt 0.369102 0.359625
vt 0.311525 0.047797
vt 0.344299 0.047797
vt 0.231808 0.359625
vt 0.247913 0.047797
vn 0.893700 0.448664 0.000000
vn 0.893700 0.448664 0.000000
vn 0.893700 0.448664 0.000000
vn 0.893700 0.448664 0.000000
vn 0.000000 1.000000 0.000000
vn 0.000000 1.000000 0.000000
vn 0.000000 1.000000 0.000000
vn 0.000000 1.000000 0.000000
vn -0.893700 -0.448665 0.000000
vn -0.893700 -0.448665 0.000000
vn -0.893700 -0.448665 0.000000
vn -0.893700 -0.448665 0.000000
vn 0.000000 -1.000000 0.000000
vn 0.000000 -1.000000 0.000000
vn 0.000000 -1.000000 0.000000
vn 0.000000 -1.000000 0.000000
vn 0.000000 0.000000 1.000000
vn 0.000000 0.000000 1.000000
vn 0.000000 0.000000 1.000000
vn 0.000000 0.000000 1.000000
vn 0.000000 0.000000 -1.000000
vn 0.000000 0.000000 -1.000000
vn 0.000000 0.000000 -1.000000
vn 0.000000 0.000000 -1.000000
s off
g pCube17 polySurface17
usemtl initialShadingGroup
f 17/31/41 19/32/42 20/33/43 18/34/44
f 19/32/45 21/35/46 22/36/47 20/37/48
f 21/35/49 23/38/50 24/39/51 22/40/52
f 23/38/53 17/31/54 18/41/55 24/42/56
f 18/34/57 20/33/58 22/43/59 24/44/60
f 23/38/61 21/35/62 19/32/63 17/31/64
g default
v -1.198054 -0.518512 -1.186242
v -1.198054 -0.518512 -1.250317
v -0.694952 0.483624 -1.186242
v -0.694952 0.483624 -1.250317
v -0.503699 0.483624 -1.186242
v -0.503699 0.483624 -1.250317
v -1.006801 -0.518512 -1.186242
v -1.006801 -0.518512 -1.250317
vt 0.307912 0.047797
vt 0.302670 0.359625
vt 0.286226 0.359625
vt 0.292608 0.047797
vt 0.348490 0.359625
vt 0.342152 0.359625
vt 0.347939 0.047797
vt 0.365749 0.047797
vt 0.366295 0.359625
vt 0.311556 0.047797
vt 0.344351 0.047797
vt 0.234060 0.359625
vt 0.248136 0.047797
vn -0.893700 0.448664 0.000000
vn -0.893700 0.448664 0.000000
vn -0.893700 0.448664 0.000000
vn -0.893700 0.448664 0.000000
vn 0.000000 1.000000 0.000000
vn 0.000000 1.000000 0.000000
vn 0.000000 1.000000 0.000000
vn 0.000000 1.000000 0.000000
vn 0.893700 -0.448664 0.000000
vn 0.893700 -0.448664 0.000000
vn 0.893700 -0.448664 0.000000
vn 0.893700 -0.448664 0.000000
vn 0.000000 -1.000000 0.000000
vn 0.000000 -1.000000 0.000000
vn 0.000000 -1.000000 0.000000
vn 0.000000 -1.000000 0.000000
vn 0.000000 0.000000 -1.000000
vn 0.000000 0.000000 -1.000000
vn 0.000000 0.000000 -1.000000
vn 0.000000 0.000000 -1.000000
vn 0.000000 0.000000 1.000000
vn 0.000000 0.000000 1.000000
vn 0.000000 0.000000 1.000000
vn 0.000000 0.000000 1.000000
s off
g pCube17 polySurface18
usemtl initialShadingGroup
f 25/45/65 27/46/66 28/47/67 26/48/68
f 27/46/69 29/49/70 30/50/71 28/47/72
f 29/49/73 31/51/74 32/52/75 30/53/76
f 31/51/77 25/45/78 26/54/79 32/55/80
f 26/48/81 28/47/82 30/56/83 32/57/84
f 31/51/85 29/49/86 27/46/87 25/45/88
g default
v -1.198054 -0.518512 1.186242
v -1.198054 -0.518512 1.250317
v -0.694952 0.483624 1.186242
v -0.694952 0.483624 1.250317
v -0.503699 0.483624 1.186242
v -0.503699 0.483624 1.250317
v -1.006801 -0.518512 1.186242
v -1.006801 -0.518512 1.250317
vt 0.104855 0.047797
vt 0.120182 0.047797
vt 0.128612 0.359625
vt 0.108303 0.359625
vt 0.103976 0.359625
vt 0.065723 0.359625
vt 0.061433 0.359625
vt 0.043627 0.359625
vt 0.046914 0.047797
vt 0.064743 0.047797
vt 0.068430 0.047797
vt 0.101204 0.047797
vt 0.164816 0.047797
vt 0.180921 0.359625
vn -0.893700 0.448664 0.000000
vn -0.893700 0.448664 0.000000
vn -0.893700 0.448664 0.000000
vn -0.893700 0.448664 0.000000
vn 0.000000 1.000000 0.000000
vn 0.000000 1.000000 0.000000
vn 0.000000 1.000000 0.000000
vn 0.000000 1.000000 0.000000
vn 0.893700 -0.448664 0.000000
vn 0.893700 -0.448664 0.000000
vn 0.893700 -0.448664 0.000000
vn 0.893700 -0.448664 0.000000
vn 0.000000 -1.000000 0.000000
vn 0.000000 -1.000000 0.000000
vn 0.000000 -1.000000 0.000000
vn 0.000000 -1.000000 0.000000
vn 0.000000 0.000000 1.000000
vn 0.000000 0.000000 1.000000
vn 0.000000 0.000000 1.000000
vn 0.000000 0.000000 1.000000
vn 0.000000 0.000000 -1.000000
vn 0.000000 0.000000 -1.000000
vn 0.000000 0.000000 -1.000000
vn 0.000000 0.000000 -1.000000
s off
g pCube17 polySurface19
usemtl initialShadingGroup
f 33/58/89 34/59/90 36/60/91 35/61/92
f 35/61/93 36/62/94 38/63/95 37/64/96
f 37/64/97 38/65/98 40/66/99 39/67/100
f 39/67/101 40/68/102 34/69/103 33/58/104
f 34/59/105 40/70/106 38/71/107 36/60/108
f 39/67/109 33/58/110 35/61/111 37/64/112
g default
v 0.961098 -0.139644 -1.321804
v 0.961098 0.044147 -1.321804
v 0.961098 -0.139644 -1.244255
v 0.961098 0.044147 -1.244255
v -0.961099 -0.139644 -1.244255
v -0.961099 0.044147 -1.244255
v -0.961099 -0.139644 -1.321804
v -0.961099 0.044147 -1.321804
vt 0.874469 0.177624
vt 0.874469 0.143173
vt 0.874469 0.147696
vt 0.874469 0.173101
vt 0.874469 0.090753
vt 0.874469 0.127618
vt 0.488908 0.127618
vt 0.488908 0.090753
vt 0.488908 0.143173
vt 0.488908 0.177624
vt 0.488908 0.193179
vt 0.874469 0.193179
vt 0.488908 0.173101
vt 0.488908 0.147696
vn 1.000000 0.000000 0.000000
vn 1.000000 0.000000 0.000000
vn 1.000000 0.000000 0.000000
vn 1.000000 0.000000 0.000000
vn 0.000000 0.000000 1.000000
vn 0.000000 0.000000 1.000000
vn -0.037145 0.388483 0.920707
vn -0.037145 -0.388483 0.920707
vn 0.000000 1.000000 0.000000
vn -0.037145 0.388483 -0.920707
vn 0.000000 1.000000 0.000000
vn -0.037145 -0.388483 -0.920707
vn 0.000000 0.000000 -1.000000
vn 0.000000 0.000000 -1.000000
vn 0.000000 -1.000000 0.000000
vn 0.000000 -1.000000 0.000000
s off
g pCube17 polySurface20
usemtl initialShadingGroup
f 41/72/113 42/73/114 44/74/115 43/75/116
s 1
f 43/76/117 44/77/118 46/78/119 45/79/120
f 42/73/121 48/80/122 46/78/119 44/77/123
f 47/81/124 48/80/122 42/73/125 41/72/126
f 45/82/120 47/81/124 41/72/127 43/83/128
f 47/81/124 45/84/120 46/85/119 48/80/122
g default
v 0.961098 -0.139644 1.321806
v 0.961098 0.044147 1.321806
v 0.961098 -0.139644 1.244260
v 0.961098 0.044147 1.244260
v -0.961099 -0.139644 1.321806
v -0.961099 0.044147 1.321806
v -0.961099 -0.139644 1.244260
v -0.961099 0.044147 1.244260
vt 0.874549 0.106295
vt 0.874549 0.110818
vt 0.874549 0.136223
vt 0.874549 0.140745
vt 0.488989 0.106295
vt 0.488989 0.140745
vt 0.488989 0.136223
vt 0.488989 0.110818
vt 0.488989 0.193166
vt 0.488989 0.156300
vt 0.874549 0.156300
vt 0.874549 0.193166
vt 0.488989 0.090741
vt 0.874549 0.090741
vn 1.000000 0.000000 0.000000
vn 1.000000 0.000000 0.000000
vn 1.000000 0.000000 0.000000
vn 1.000000 0.000000 0.000000
vn -1.000000 0.000000 0.000000
vn -1.000000 0.000000 0.000000
vn -1.000000 0.000000 0.000000
vn -1.000000 0.000000 0.000000
vn 0.000000 0.000000 -1.000000
vn 0.000000 0.000000 -1.000000
vn 0.000000 0.000000 -1.000000
vn 0.000000 0.000000 -1.000000
vn 0.000000 1.000000 0.000000
vn 0.000000 1.000000 0.000000
vn 0.000000 1.000000 0.000000
vn 0.000000 1.000000 0.000000
vn 0.000000 0.000000 1.000000
vn 0.000000 0.000000 1.000000
vn 0.000000 0.000000 1.000000
vn 0.000000 0.000000 1.000000
vn 0.000000 -1.000000 0.000000
vn 0.000000 -1.000000 0.000000
vn 0.000000 -1.000000 0.000000
vn 0.000000 -1.000000 0.000000
s off
g pCube17 polySurface21
usemtl initialShadingGroup
f 49/86/129 51/87/130 52/88/131 50/89/132
f 53/90/133 54/91/134 56/92/135 55/93/136
f 55/94/137 56/95/138 52/96/139 51/97/140
f 54/91/141 50/89/142 52/96/143 56/95/144
f 50/89/145 54/91/146 53/90/147 49/86/148
f 49/86/149 53/90/150 55/98/151 51/99/152
g default
v 1.403520 0.016256 -1.374212
v 1.403520 0.016256 1.374213
v 1.403520 0.093803 -1.374212
v 1.403520 0.093803 1.374213
v 0.865311 0.093803 -1.374212
v 0.865311 0.093803 1.374213
v 0.865311 0.016256 -1.374212
v 0.865311 0.016256 1.374213
v 1.113671 0.093803 -1.374212
v 1.113671 0.093803 1.374213
v 1.113671 0.016256 1.374213
v 1.113671 0.016256 -1.374212
v 0.865311 -0.103465 -1.374212
v 0.865311 -0.103465 1.374213
v 1.113671 -0.103465 1.374213
v 1.113671 -0.103465 -1.374212
vt 0.624772 0.924539
vt 0.624772 0.924539
vt 0.624772 0.319630
vt 0.624772 0.319630
vt 0.562311 0.924539
vt 0.508790 0.924539
vt 0.508790 0.319630
vt 0.562311 0.319630
vt 0.508790 0.924539
vt 0.508790 0.319630
vt 0.853627 0.959357
vt 0.906600 0.959357
vt 0.906600 0.212354
vt 0.853627 0.212354
vt 0.508790 0.281562
vt 0.562311 0.281562
vt 0.508790 0.942747
vt 0.562311 0.942747
vt 0.624772 0.281562
vt 0.906600 0.912545
vt 0.968421 0.912545
vt 0.968422 0.258135
vt 0.906600 0.258135
vt 0.624772 0.942747
vt 0.508790 0.924539
vt 0.508790 0.319630
vt 0.508790 0.235308
vt 0.562311 0.235308
vt 0.562311 0.990043
vt 0.508790 0.990043
vn 1.000000 0.000000 0.000000
vn 1.000000 0.000000 0.000000
vn 1.000000 0.000000 0.000000
vn 1.000000 0.000000 0.000000
vn 0.000000 1.000000 0.000000
vn 0.000000 1.000000 0.000000
vn 0.000000 1.000000 0.000000
vn 0.000000 1.000000 0.000000
vn -1.000000 0.000000 0.000000
vn -1.000000 0.000000 0.000000
vn -1.000000 0.000000 0.000000
vn -1.000000 0.000000 0.000000
vn 0.000000 -1.000000 0.000000
vn 0.000000 -1.000000 0.000000
vn 0.000000 -1.000000 0.000000
vn 0.000000 -1.000000 0.000000
vn 0.000000 0.000000 1.000000
vn 0.000000 0.000000 1.000000
vn 0.000000 0.000000 1.000000
vn 0.000000 0.000000 1.000000
vn 0.000000 0.000000 -1.000000
vn 0.000000 0.000000 -1.000000
vn 0.000000 0.000000 -1.000000
vn 0.000000 0.000000 -1.000000
vn 0.000000 1.000000 0.000000
vn 0.000000 1.000000 0.000000
vn 0.000000 0.000000 1.000000
vn 0.000000 0.000000 1.000000
vn 0.000000 -1.000000 0.000000
vn 0.000000 -1.000000 0.000000
vn 0.000000 -1.000000 0.000000
vn 0.000000 -1.000000 0.000000
vn 0.000000 0.000000 -1.000000
vn 0.000000 0.000000 -1.000000
vn -1.000000 0.000000 0.000000
vn -1.000000 0.000000 0.000000
vn 0.000000 0.000000 1.000000
vn 0.000000 0.000000 1.000000
vn 1.000000 0.000000 0.000000
vn 1.000000 0.000000 0.000000
vn 1.000000 0.000000 0.000000
vn 1.000000 0.000000 0.000000
vn 0.000000 0.000000 -1.000000
vn 0.000000 0.000000 -1.000000
s off
g pCube17 polySurface22
usemtl initialShadingGroup
f 57/100/153 59/101/154 60/102/155 58/103/156
s 1
f 65/104/157 61/105/158 62/106/159 66/107/160
s 2
f 61/105/161 63/108/162 64/109/163 62/106/164
s off
f 69/110/165 72/111/166 71/112/167 70/113/168
s 3
f 66/107/169 62/106/170 64/114/171 67/115/172
s 4
f 63/116/173 61/105/174 65/104/175 68/117/176
s 1
f 59/101/177 65/104/157 66/107/160 60/102/178
s 3
f 58/118/179 60/102/180 66/107/169 67/115/172
s off
f 68/119/181 57/120/182 58/121/183 67/122/184
s 4
f 65/104/175 59/101/185 57/123/186 68/117/176
s 2
f 63/108/162 69/124/187 70/125/188 64/109/163
s 3
f 64/114/171 70/126/189 71/127/190 67/115/172
s off
f 67/122/191 71/112/192 72/111/193 68/119/194
s 4
f 68/117/176 72/128/195 69/129/196 63/116/173
g default
v -1.403520 0.016256 -1.374212
v -1.403520 0.016256 1.374213
v -1.403520 0.093803 -1.374212
v -1.403520 0.093803 1.374213
v -0.865312 0.093803 -1.374212
v -0.865312 0.093803 1.374213
v -0.865312 0.016256 -1.374212
v -0.865312 0.016256 1.374213
v -1.113672 0.093803 -1.374212
v -1.113672 0.093803 1.374213
v -1.113672 0.016256 1.374213
v -1.113672 0.016256 -1.374212
v -0.865312 -0.103465 -1.374212
v -0.865312 -0.103465 1.374213
v -1.113672 -0.103465 1.374213
v -1.113672 -0.103465 -1.374212
vt 0.624753 0.319579
vt 0.624604 0.924488
vt 0.624604 0.924488
vt 0.624753 0.319579
vt 0.562292 0.319564
vt 0.562142 0.924472
vt 0.508621 0.924459
vt 0.508771 0.319550
vt 0.508621 0.924459
vt 0.508771 0.319550
vt 0.801690 0.888662
vt 0.801690 0.231053
vt 0.748717 0.231053
vt 0.748717 0.888662
vt 0.562138 0.942317
vt 0.508617 0.942304
vt 0.508778 0.282546
vt 0.562299 0.282559
vt 0.624599 0.942332
vt 0.748717 0.910883
vt 0.748717 0.278151
vt 0.686896 0.278151
vt 0.686896 0.910883
vt 0.624760 0.282575
vt 0.508621 0.924459
vt 0.508771 0.319550
vt 0.562126 0.989902
vt 0.508605 0.989889
vt 0.508781 0.236302
vt 0.562302 0.236316
vn -1.000000 0.000000 0.000000
vn -1.000000 0.000000 0.000000
vn -1.000000 0.000000 0.000000
vn -1.000000 0.000000 0.000000
vn 0.000000 1.000000 0.000000
vn 0.000000 1.000000 0.000000
vn 0.000000 1.000000 0.000000
vn 0.000000 1.000000 0.000000
vn 1.000000 0.000000 0.000000
vn 1.000000 0.000000 0.000000
vn 1.000000 0.000000 0.000000
vn 1.000000 0.000000 0.000000
vn 0.000000 -1.000000 0.000000
vn 0.000000 -1.000000 0.000000
vn 0.000000 -1.000000 0.000000
vn 0.000000 -1.000000 0.000000
vn 0.000000 0.000000 1.000000
vn 0.000000 0.000000 1.000000
vn 0.000000 0.000000 1.000000
vn 0.000000 0.000000 1.000000
vn 0.000000 0.000000 -1.000000
vn 0.000000 0.000000 -1.000000
vn 0.000000 0.000000 -1.000000
vn 0.000000 0.000000 -1.000000
vn 0.000000 1.000000 0.000000
vn 0.000000 1.000000 0.000000
vn 0.000000 0.000000 1.000000
vn 0.000000 0.000000 1.000000
vn 0.000000 -1.000000 0.000000
vn 0.000000 -1.000000 0.000000
vn 0.000000 -1.000000 0.000000
vn 0.000000 -1.000000 0.000000
vn 0.000000 0.000000 -1.000000
vn 0.000000 0.000000 -1.000000
vn 1.000000 0.000000 0.000000
vn 1.000000 0.000000 0.000000
vn 0.000000 0.000000 1.000000
vn 0.000000 0.000000 1.000000
vn -1.000000 0.000000 0.000000
vn -1.000000 0.000000 0.000000
vn -1.000000 0.000000 0.000000
vn -1.000000 0.000000 0.000000
vn 0.000000 0.000000 -1.000000
vn 0.000000 0.000000 -1.000000
s off
g pCube17 polySurface23
usemtl initialShadingGroup
f 73/130/197 74/131/198 76/132/199 75/133/200
s 1
f 81/134/201 82/135/202 78/136/203 77/137/204
s 2
f 77/137/205 78/136/206 80/138/207 79/139/208
s off
f 85/140/209 86/141/210 87/142/211 88/143/212
s 3
f 82/135/213 83/144/214 80/145/215 78/136/216
s 4
f 79/146/217 84/147/218 81/134/219 77/137/220
s 1
f 75/133/221 76/132/222 82/135/202 81/134/201
s 3
f 74/148/223 83/144/214 82/135/213 76/132/224
s off
f 84/149/225 83/150/226 74/151/227 73/152/228
s 4
f 81/134/219 84/147/218 73/153/229 75/133/230
s 2
f 79/139/208 80/138/207 86/154/231 85/155/232
s 3
f 80/145/215 83/144/214 87/156/233 86/157/234
s off
f 83/150/235 84/149/236 88/143/237 87/142/238
s 4
f 84/147/218 79/146/217 85/158/239 88/159/240
